<svg width="143" height="60" viewBox="0 0 143 60" fill="none" xmlns="http://www.w3.org/2000/svg">
<path d="M30.975 51.0375H31.8375V56.475H31.8L27.45 50.2875H25.3125V51.0375H26.1V58.6875H25.3125V59.4375H27.9375V58.6875H27.15V52.8375H27.1875L30.6 57.7875C30.975 58.3125 31.425 58.9125 31.6875 59.4H32.85V51.0375H33.6375V50.2875H30.975V51.0375Z" fill="white"/>
<path d="M42.8625 51.0375H43.725V50.2875H40.125V51.0375H40.9875V58.6875H40.125V59.4375H43.725V58.6875H42.8625V51.0375Z" fill="white"/>
<path d="M95.0624 52.0875C95.0624 51.225 95.7749 50.9625 96.5249 50.9625C97.6124 50.9625 98.5499 51.75 98.9249 52.275L100.012 50.7L99.4499 50.325L99.0749 50.7375C98.5499 50.4375 97.7249 50.1 96.8624 50.1C95.2499 50.1 93.6749 51.0375 93.6749 52.8375C93.6749 55.7625 98.8499 54.975 98.8499 57.1875C98.8499 58.0125 98.4374 58.5375 97.2749 58.5375C95.8874 58.5375 94.7249 57.4125 94.0499 56.625L92.8499 58.1625C93.7499 58.95 94.8749 59.6625 96.4499 59.6625C99.1499 59.6625 100.012 57.9375 100.012 56.4375C100.087 53.2875 95.0624 54 95.0624 52.0875Z" fill="white"/>
<path d="M108.938 51.0375H109.763V50.2875H106.163V51.0375H107.063V58.6875H106.163V59.4375H109.8V58.6875H108.938V51.0375Z" fill="white"/>
<path d="M116.475 50.2875L116.062 52.5H116.7C116.775 52.0875 117.075 51 118.538 51H118.8V58.6875H117.862V59.4375H121.612V58.6875H120.675V51.075H120.938C122.4 51.075 122.7 52.125 122.775 52.575H123.413L123 50.3625H116.475V50.2875Z" fill="white"/>
<path d="M135.825 51.0375H136.725L134.7 55.0125L132.562 51.0375H133.575V50.2875H129.825V51.0375H130.5L133.35 56.325V58.65H132.15V59.4375H136.462V58.65H135.262V56.0625L137.812 51.0375H138.487V50.2875H135.825V51.0375Z" fill="white"/>
<path d="M56.4749 51H57.2999L55.0499 57.75L52.7249 51H53.3624V50.2875H50.1375V51H50.6624L53.5499 59.4375H55.5L58.4249 51H59.0624V50.2875H56.4749V51Z" fill="white"/>
<path d="M69.225 58.6875H68.1V55.3125H70.725V56.0625H71.475V53.6625H70.725V54.4125H68.1V51.0375H69.4125C70.5375 51.0375 71.2125 51.6375 71.7 52.275L72.225 51.975L71.4375 50.25C70.95 50.2875 70.4625 50.2875 70.0125 50.2875H65.475V51.0375H66.2625V58.6875H65.475V59.4375H70.35C70.9875 59.4375 71.2875 59.475 71.475 59.55L72.4125 57.525L71.775 57.2625C71.325 57.9375 70.6875 58.6875 69.225 58.6875Z" fill="white"/>
<path d="M85.35 55.0875C86.4375 54.7125 87.225 53.8125 87.225 52.8C87.225 51.4125 85.8375 50.2875 84.1125 50.2875H81.675H79.05V51.0375H79.8V58.6875H79.0125V59.4375H82.5V58.6875H81.675V55.3125H83.325L85.125 59.4375H87.7125V58.6875H87.0375L85.35 55.0875ZM81.675 54.45V51.0375H83.2125C84.3 51.0375 85.1625 51.7875 85.1625 52.725C85.1625 53.6625 84.3 54.4125 83.2125 54.4125H81.675V54.45Z" fill="white"/>
<path d="M16.3875 50.2875V56.475C16.3875 57.975 16.0125 58.5375 14.775 58.5375C13.5375 58.5375 13.1625 57.975 13.1625 56.475V50.2875H10.5V51.0375H11.2875V57.1875C11.2875 58.5375 12.8625 59.625 14.775 59.625C16.6875 59.625 18.225 58.575 18.2625 57.2625V51.075H19.05V50.325H16.3875V50.2875Z" fill="white"/>
<path d="M87.075 27.4125C87.075 25.05 86.4375 23.2125 85.2 21.9375C83.775 20.5125 81.4875 19.7625 78.45 19.7625C76.3125 19.7625 74.325 20.1375 72.675 20.85L71.325 21.45L71.7375 20.2125H69.7875L67.5375 26.2125L69.5625 26.9625L69.6375 26.8875C70.9125 25.2 72.375 23.25 75.3375 23.25C76.575 23.25 77.55 23.5875 78.2625 24.3C78.975 25.0125 79.3125 25.9875 79.3125 27.225V30.15H71.8125C69.825 30.15 68.0625 30.7875 66.75 32.0625C65.2125 33.4875 64.425 35.5875 64.425 38.1C64.425 39.9375 65.0625 41.55 66.3 42.7125C67.6125 43.95 69.525 44.625 71.7 44.625C74.55 44.625 76.65 43.2375 78.375 41.85L79.2 41.175L79.1625 43.875H88.7625V42.1875H87.1125V27.4125H87.075ZM79.275 37.1625C79.275 37.95 79.1625 39.1125 78.225 39.825C77.6625 40.275 76.875 40.5 75.8625 40.5C74.85 40.5 74.0625 40.275 73.425 39.7875C72.6 39.15 72.1875 38.1375 72.1875 36.7875C72.1875 34.575 74.2875 32.9625 77.1375 32.9625H79.2375V37.1625H79.275Z" fill="white"/>
<path d="M64.6126 20.25L64.2751 21.1125L63.5626 20.7375C62.1751 20.0625 61.5001 19.8 60.1876 19.8C58.6501 19.8 56.4001 22.6875 55.8376 24.4125C55.7251 24.7125 55.6501 25.0125 55.5751 25.275L55.5376 25.3875V19.575L46.8376 22.3125V23.85L48.4501 23.3625V42.1875H46.7626V43.875H57.9001V42.1875H56.2126V28.875C56.2126 28.875 57.3001 25.8375 60.0376 25.8375C62.1001 25.8375 64.1251 26.7375 64.1251 26.7375L66.5626 20.25H64.6126Z" fill="white"/>
<path d="M20.025 0C11.8875 0 4.4625 3.7125 0 9.93749L3.225 11.7375C6.825 6.67499 11.1 3.825 18.8625 3.825C30.975 3.825 34.5375 15.4875 34.5375 21.9375C34.5375 29.7375 29.6625 40.05 20.025 40.05H19.35V8.24999L9.9375 11.175V40.05H6.5625V43.9125H20.025C33.225 43.9125 43.95 34.05 43.95 21.9375C43.95 10.4625 33.9375 0 20.025 0Z" fill="white"/>
<path d="M134.138 41.4C129.863 41.4 126.975 38.8875 126.975 32.9625H142.763C142.763 24.5625 137.55 19.4625 131.025 19.4625C124.5 19.4625 119.213 25.4625 119.213 32.2875C119.213 42.45 127.8 44.175 132.713 44.175C136.65 44.175 140.663 41.55 141.675 39.7875L140.963 38.55C139.35 39.975 137.513 41.4 134.138 41.4ZM131.025 21.7125C133.05 21.7125 135 24.0375 135 30.2625H127.013C127.05 24.0375 129 21.7125 131.025 21.7125Z" fill="white"/>
<path d="M120.188 42.1875H118.688L107.963 28.875L115.988 21.4875H117.713V19.8375H112.95L101.175 30.4875V11.25L91.9126 14.175V15.825L93.3751 15.375V42.1875H91.9126V43.875H102.6V42.1875H101.175V35.0625L102.825 33.5625L110.4 43.875H120.188V42.1875Z" fill="white"/>
</svg>
